<svg xmlns="http://www.w3.org/2000/svg"  viewBox="0 0 48 48" width="480px" height="480px"><path fill="#e91e63" d="M6,10c0-2.209,1.791-4,4-4h28c2.209,0,4,1.791,4,4v28c0,2.209-1.791,4-4,4H10c-2.209,0-4-1.791-4-4	V10z"/><path fill="#16020b" d="M27.283,22.553c-0.508,0-0.879,0.205-1.113,0.615s-0.352,1.14-0.352,2.188v0.732	c0,1.042,0.111,1.77,0.332,2.183s0.596,0.62,1.123,0.62c0.547,0,0.961-0.244,1.24-0.732v-4.824	C28.24,22.813,27.83,22.553,27.283,22.553z"/><path fill="#16020b" d="M9,9v30h30V9H9z M21.141,31H18.27V16.781h2.871V31z M31.297,31h-2.51l-0.127-1.074	c-0.566,0.847-1.295,1.27-2.188,1.27c-1.107,0-1.952-0.423-2.534-1.27s-0.88-2.09-0.894-3.73v-0.801	c0-1.731,0.293-3.024,0.879-3.877s1.439-1.279,2.559-1.279c0.814,0,1.49,0.352,2.031,1.055V16h2.783L31.297,31L31.297,31z"/></svg>