<svg
  xmlns="http://www.w3.org/2000/svg"
  width="480"
  height="480"
  viewBox="0 0 480 480"
  style="color: #000000">
  <g transform="matrix(2.2545197,0,0,-2.2545197,201.19787,239.62716)">
    <path
      d="m 0,0 c -12.294,-11.609 -24.065,-22.889 -36.029,-33.961 -7.364,-6.814 -16.384,-9.223 -25.963,-6.802 -6.383,1.613 -12.324,4.972 -18.351,7.503 -1.135,-11.458 2.389,-21.77 12.173,-29.308 14.105,-10.868 32.485,-9.122 46.304,4.178 12.6,12.127 25.128,24.331 37.672,36.517 1.132,1.101 2.145,2.324 3.417,3.712 C 12.645,-11.946 6.509,-6.149 0,0 m 113.775,28.847 c 0.28,0.687 0.557,1.093 0.607,1.526 1.765,15.205 -4.547,26.69 -18.566,33.819 -11.92,6.062 -24.1,4.218 -34.891,-5.871 C 45.719,44.105 30.797,29.586 15.684,15.27 12.444,12.201 8.909,9.444 5.187,6.268 c 7.577,-7.1 13.922,-13.045 20.183,-18.911 15.161,14.458 30.271,29.001 45.538,43.379 10.126,9.536 22.125,11.229 33.5,4.811 3.259,-1.84 6.133,-4.36 9.367,-6.7 M -5.437,5.426 c -12.596,11.762 -23.982,22.706 -35.743,33.23 -5.083,4.547 -11.192,7.061 -18.414,5.123 -12.739,-3.419 -20.348,-13.261 -20.77,-27.613 -0.245,-8.314 -0.181,-16.641 -0.082,-24.959 0.126,-10.505 5.217,-18.219 14.529,-22.562 9.975,-4.652 19.213,-2.232 27.114,5.121 7.18,6.683 14.125,13.619 21.222,20.393 3.824,3.65 7.748,7.195 12.144,11.267 m 36.473,-23.681 c 12.443,-11.557 25.12,-23.131 37.486,-34.205 0,3.879 0.009,3.878 0.003,5.475 -0.033,9.488 -0.021,18.977 -0.131,28.465 -0.034,2.908 0.73,4.999 4.021,5.03 3.317,0.031 4.167,-2.13 4.09,-4.984 -0.032,-1.165 -0.012,-2.331 -0.012,-3.496 -0.002,-11.819 0.085,-23.639 -0.057,-35.457 -0.044,-3.669 1.472,-5.89 4.653,-7.45 6.133,-3.009 12.262,-3.078 18.196,0.18 9.612,5.278 15.302,13.511 15.514,24.493 0.301,15.636 -0.16,31.288 -0.389,46.932 -0.028,1.969 -0.475,3.968 -0.977,5.888 C 108.728,30.604 88.83,36.496 75.395,23.898 69.937,18.78 64.503,13.637 59.082,8.481 49.835,-0.314 40.607,-9.129 31.036,-18.255 M -80.399,70.354 c 0.002,-7.904 0,-14.019 0,-23.39 v -6.375 c 1.635,1.228 2.108,1.696 3.241,2.541 14.94,11.982 29.878,12.782 43.895,-0.234 11.103,-10.311 22.015,-20.828 33.373,-31.597 5.368,5.136 10.638,10.149 15.877,15.193 13.079,12.592 26.04,25.307 39.245,37.766 12.163,11.475 26.36,14.746 41.959,8.33 15.49,-6.37 24.93,-18.046 25.291,-35.095 0.557,-26.318 0.532,-52.661 0.075,-78.982 -0.285,-16.415 -13.188,-30.694 -28.595,-33.442 -9.323,-1.664 -16.601,2.343 -23.066,8.26 -13.885,12.707 -27.61,25.587 -41.411,38.385 -1.333,1.236 -2.739,2.394 -4.576,3.993 C 12.455,-36.289 0.415,-48 -11.761,-59.568 c -6.378,-6.06 -12.636,-12.189 -21.236,-15.414 -27.156,-10.181 -55.515,9.203 -55.508,38.138 0.008,34.998 -0.109,72.164 -0.117,107.161 0,0 0,4.445 4.157,4.453 4.177,0.122 4.066,-4.416 4.066,-4.416"
      fill="currentColor" />
    </g>
  </svg>
